<?xml version="1.0" standalone="no"?>
<!DOCTYPE svg PUBLIC "-//W3C//DTD SVG 20010904//EN"
 "http://www.w3.org/TR/2001/REC-SVG-20010904/DTD/svg10.dtd">
<svg version="1.0" xmlns="http://www.w3.org/2000/svg"
 width="192.000000pt" height="192.000000pt" viewBox="0 0 192.000000 192.000000"
 preserveAspectRatio="xMidYMid meet">
<metadata>
Created by potrace 1.11, written by Peter Selinger 2001-2013
</metadata>
<g transform="translate(0.000000,192.000000) scale(0.100000,-0.100000)"
fill="#000000" stroke="none">
<path d="M694 1829 c-48 -14 -134 -96 -160 -154 -34 -72 -34 -186 1 -258 25
-53 91 -131 134 -158 l24 -15 -49 -50 c-63 -63 -118 -158 -151 -259 -22 -68
-26 -99 -27 -210 -1 -149 10 -206 61 -314 55 -116 174 -222 298 -266 70 -25
258 -26 338 -2 108 33 197 94 288 200 102 117 95 105 77 123 -14 14 -23 11
-94 -25 -113 -59 -214 -83 -354 -85 -106 -1 -121 1 -189 29 -134 53 -201 150
-201 290 0 91 1 92 69 87 54 -4 60 -2 96 29 56 50 108 176 81 198 -17 14 -38
-9 -61 -66 -11 -27 -30 -50 -51 -64 -30 -18 -39 -20 -64 -9 -23 9 -30 19 -30
39 0 55 49 198 73 213 7 4 37 8 67 8 30 0 80 7 110 15 80 21 128 19 175 -10
98 -59 93 -57 159 -46 35 6 91 11 125 11 l63 0 -5 -32 c-9 -56 -42 -161 -65
-205 -21 -40 -26 -44 -110 -69 -130 -39 -205 -77 -263 -131 -89 -83 -134 -190
-94 -223 21 -18 211 -3 295 22 165 50 309 169 377 312 37 79 38 84 38 191 0
104 -2 114 -33 180 -68 143 -228 255 -408 284 -87 14 -124 9 -144 -18 -8 -12
-25 -34 -37 -49 -19 -24 -19 -20 5 28 39 80 38 182 -2 264 -41 84 -131 171
-197 190 -58 18 -117 19 -165 5z"/>
<path d="M1091 1096 c-17 -20 -10 -66 10 -79 40 -25 90 48 57 81 -16 16 -53
15 -67 -2z"/>
</g>
</svg>
